<svg width="226" height="21" viewBox="0 0 226 21" fill="none" xmlns="http://www.w3.org/2000/svg">
<path d="M8.438 7.04C8.486 7.496 8.366 7.88 8.078 8.192C7.478 8.936 6.854 9.668 6.206 10.388C5.582 11.108 4.946 11.804 4.298 12.476C4.13 12.644 4.058 12.848 4.082 13.088C4.106 13.328 4.202 13.532 4.37 13.7C4.442 13.724 4.514 13.772 4.586 13.844C4.682 13.916 4.778 13.976 4.874 14.024C5.114 14.12 5.318 14.276 5.486 14.492C5.582 14.612 5.69 14.72 5.81 14.816C5.954 14.912 6.11 15.008 6.278 15.104C6.374 15.128 6.446 15.176 6.494 15.248C6.566 15.32 6.638 15.392 6.71 15.464C6.758 15.512 6.806 15.56 6.854 15.608C6.902 15.656 6.962 15.704 7.034 15.752C7.226 15.92 7.382 16.124 7.502 16.364C7.622 16.58 7.706 16.82 7.754 17.084C7.778 17.228 7.778 17.384 7.754 17.552C7.73 17.72 7.67 17.888 7.574 18.056C7.382 18.392 7.094 18.524 6.71 18.452C6.062 18.404 5.57 18.224 5.234 17.912C4.898 17.576 4.49 17.216 4.01 16.832C3.77 16.64 3.506 16.472 3.218 16.328C2.93 16.184 2.69 16.028 2.498 15.86C2.498 15.836 2.51 15.812 2.534 15.788C2.582 15.74 2.594 15.704 2.57 15.68C2.378 15.512 2.198 15.332 2.03 15.14C1.862 14.948 1.694 14.756 1.526 14.564C1.43 14.468 1.346 14.36 1.274 14.24C1.226 14.12 1.178 14.012 1.13 13.916C1.106 13.868 1.082 13.832 1.058 13.808C1.058 13.76 1.034 13.724 0.986 13.7C0.89 13.556 0.806 13.4 0.734 13.232C0.662 13.064 0.602 12.908 0.554 12.764C0.554 12.668 0.542 12.584 0.518 12.512C0.518 12.44 0.518 12.368 0.518 12.296C0.446 11.744 0.638 11.3 1.094 10.964C1.358 10.748 1.61 10.508 1.85 10.244C2.09 9.98 2.282 9.704 2.426 9.416C2.498 9.32 2.57 9.236 2.642 9.164C2.714 9.068 2.798 8.972 2.894 8.876C3.374 8.492 3.806 8.072 4.19 7.616C4.574 7.136 5.006 6.728 5.486 6.392C5.534 6.368 5.582 6.368 5.63 6.392C5.678 6.416 5.714 6.416 5.738 6.392C6.05 6.176 6.302 5.984 6.494 5.816C6.686 5.624 6.902 5.528 7.142 5.528C7.382 5.528 7.586 5.612 7.754 5.78C7.754 5.78 7.802 5.804 7.898 5.852C8.186 6.164 8.366 6.56 8.438 7.04ZM213.078 2.432C213.006 2.696 212.826 2.936 212.538 3.152C212.274 3.368 212.046 3.644 211.854 3.98C211.638 4.316 211.47 4.664 211.35 5.024C211.23 5.384 211.098 5.696 210.954 5.96C210.906 6.056 210.822 6.104 210.702 6.104C210.558 6.104 210.462 6.14 210.414 6.212C210.126 6.716 209.838 7.196 209.55 7.652C209.286 8.108 209.022 8.588 208.758 9.092C208.734 9.164 208.698 9.236 208.65 9.308C208.626 9.38 208.59 9.452 208.542 9.524C208.494 9.548 208.458 9.56 208.434 9.56C208.242 9.728 208.062 9.932 207.894 10.172C206.838 11.948 205.758 13.664 204.654 15.32C203.574 16.952 202.47 18.608 201.342 20.288C201.174 20.48 200.97 20.588 200.73 20.612C200.514 20.66 200.31 20.612 200.118 20.468L200.01 20.396C199.578 20.132 199.362 19.712 199.362 19.136V18.956C199.338 18.764 199.35 18.56 199.398 18.344C199.47 18.104 199.554 17.9 199.65 17.732C200.802 15.956 202.014 14.12 203.286 12.224C204.558 10.328 205.782 8.432 206.958 6.536C207.366 5.864 207.786 5.156 208.218 4.412C208.65 3.644 209.094 2.912 209.55 2.216C209.718 2 209.91 1.784 210.126 1.568C210.342 1.352 210.51 1.124 210.63 0.883999C210.774 0.691999 210.954 0.571999 211.17 0.524C211.41 0.451999 211.626 0.475999 211.818 0.595999C212.178 0.835999 212.49 1.124 212.754 1.46C213.042 1.796 213.15 2.12 213.078 2.432ZM225.472 11.684C225.52 11.9 225.508 12.092 225.436 12.26C225.34 12.38 225.232 12.488 225.112 12.584C225.088 12.608 225.04 12.632 224.968 12.656C224.896 12.656 224.836 12.668 224.788 12.692C224.596 12.788 224.392 12.944 224.176 13.16C223.744 13.616 223.24 14.108 222.664 14.636C222.088 15.164 221.536 15.668 221.008 16.148C220.48 16.604 220.024 16.988 219.64 17.3C219.28 17.588 219.076 17.732 219.028 17.732C218.98 17.732 218.944 17.756 218.92 17.804H218.812C218.236 17.924 217.756 17.804 217.372 17.444C217.348 17.396 217.312 17.36 217.264 17.336C217.24 17.288 217.216 17.24 217.192 17.192C216.832 16.76 216.808 16.304 217.12 15.824C217.6 14.936 218.272 14.168 219.136 13.52C220 12.872 220.768 12.176 221.44 11.432C221.584 11.24 221.668 11.024 221.692 10.784C221.716 10.544 221.644 10.328 221.476 10.136C221.092 9.656 220.66 9.212 220.18 8.804C219.724 8.396 219.292 7.964 218.884 7.508C218.5 7.052 218.212 6.524 218.02 5.924C217.972 5.732 218.008 5.552 218.128 5.384C218.248 5.216 218.404 5.132 218.596 5.132C219.028 5.084 219.4 5.144 219.712 5.312C219.904 5.408 220.072 5.516 220.216 5.636C220.36 5.732 220.504 5.828 220.648 5.924C220.768 5.972 220.876 6.056 220.972 6.176C221.092 6.296 221.2 6.416 221.296 6.536C221.536 6.944 221.836 7.304 222.196 7.616C222.58 7.928 222.94 8.24 223.276 8.552C223.636 8.864 223.9 9.212 224.068 9.596C224.116 9.692 224.176 9.788 224.248 9.884C224.32 9.956 224.38 10.04 224.428 10.136C224.86 10.544 225.208 11.06 225.472 11.684Z" fill="#FF6700"/>
<path d="M31.2941 8.444C31.2701 8.54 31.2581 8.672 31.2581 8.84C31.2581 9.008 31.2221 9.152 31.1501 9.272C31.0301 9.584 30.9701 9.884 30.9701 10.172C31.0661 11.468 30.9581 12.656 30.6461 13.736C30.3581 14.816 30.0941 15.956 29.8541 17.156C29.8301 17.228 29.8061 17.324 29.7821 17.444C29.7581 17.54 29.7221 17.636 29.6741 17.732C29.5301 17.972 29.4581 18.236 29.4581 18.524C29.4581 18.668 29.4341 18.812 29.3861 18.956C29.3381 19.1 29.2901 19.232 29.2421 19.352C29.0741 19.712 28.8101 19.988 28.4501 20.18C28.1621 20.324 27.8261 20.36 27.4421 20.288C27.3461 20.288 27.2621 20.276 27.1901 20.252C27.1181 20.228 27.0341 20.204 26.9381 20.18C26.3861 20.012 26.1101 19.652 26.1101 19.1C26.1581 18.308 26.2421 17.672 26.3621 17.192C26.5061 16.688 26.6021 16.064 26.6501 15.32C26.7221 15.032 26.8061 14.792 26.9021 14.6C26.9981 14.432 27.0341 14.252 27.0101 14.06C26.9861 13.844 27.0101 13.652 27.0821 13.484C27.1541 13.22 27.1901 12.956 27.1901 12.692C27.1661 11.948 27.1781 11.144 27.2261 10.28C27.2981 9.416 27.3461 8.552 27.3701 7.688C27.4181 6.8 27.3941 6.008 27.2981 5.312C27.2741 5.12 27.1661 4.976 26.9741 4.88C26.7821 4.76 26.5901 4.748 26.3981 4.844C25.7261 5.132 25.0901 5.528 24.4901 6.032C23.9141 6.536 23.4101 7.052 22.9781 7.58C22.9301 7.604 22.8821 7.64 22.8341 7.688C22.7861 7.736 22.7261 7.76 22.6541 7.76C22.5101 7.76 22.4021 7.832 22.3301 7.976C22.2821 8.144 22.2101 8.312 22.1141 8.48C22.0421 8.624 21.9341 8.756 21.7901 8.876C21.5501 9.044 21.3461 9.296 21.1781 9.632C21.1061 9.776 21.0461 9.908 20.9981 10.028C20.9501 10.124 20.8781 10.22 20.7821 10.316C20.6621 10.412 20.5661 10.52 20.4941 10.64C20.4221 10.736 20.3621 10.856 20.3141 11C20.2901 11.096 20.2301 11.192 20.1341 11.288C20.0621 11.384 19.9901 11.468 19.9181 11.54C19.8221 11.636 19.7261 11.732 19.6301 11.828C19.5581 11.924 19.4861 12.032 19.4141 12.152C18.8861 13.232 18.2501 14.228 17.5061 15.14C16.7621 16.028 16.0901 17.012 15.4901 18.092C15.4421 18.236 15.3581 18.368 15.2381 18.488C15.1421 18.584 15.0341 18.68 14.9141 18.776C14.7941 18.872 14.6741 18.992 14.5541 19.136C14.4341 19.256 14.3141 19.328 14.1941 19.352C14.0981 19.352 14.0141 19.376 13.9421 19.424C13.8941 19.448 13.8461 19.484 13.7981 19.532C13.6781 19.652 13.5701 19.736 13.4741 19.784C13.4501 19.808 13.4141 19.832 13.3661 19.856C13.3181 19.88 13.2701 19.916 13.2221 19.964C13.0541 20.06 12.8981 20.06 12.7541 19.964C12.6341 19.844 12.5861 19.7 12.6101 19.532C13.2821 16.964 14.1701 14.636 15.2741 12.548C16.4021 10.436 17.6621 8.42 19.0541 6.5C19.1021 6.452 19.1501 6.404 19.1981 6.356C19.2461 6.284 19.2941 6.224 19.3421 6.176C19.8941 5.672 20.4701 5.144 21.0701 4.592C21.6941 4.04 22.3661 3.548 23.0861 3.116C23.8061 2.66 24.5741 2.348 25.3901 2.18C26.2061 1.988 27.0941 2.012 28.0541 2.252C29.2541 2.756 30.1181 3.56 30.6461 4.664C31.1981 5.768 31.4141 7.028 31.2941 8.444ZM25.4621 12.872C25.5581 13.208 25.5101 13.472 25.3181 13.664C24.9101 14.072 24.4181 14.324 23.8421 14.42C23.2901 14.516 22.7021 14.48 22.0781 14.312C21.6941 14.24 21.3581 14.048 21.0701 13.736C21.0221 13.688 20.9621 13.64 20.8901 13.592C20.8181 13.52 20.7341 13.46 20.6381 13.412C20.4461 13.364 20.3501 13.244 20.3501 13.052C20.3501 12.908 20.4461 12.788 20.6381 12.692C21.1181 12.572 21.6701 12.38 22.2941 12.116C22.9181 11.852 23.4941 11.744 24.0221 11.792C24.2141 11.816 24.3701 11.888 24.4901 12.008C24.6341 12.128 24.7901 12.236 24.9581 12.332C25.1261 12.452 25.2941 12.632 25.4621 12.872ZM46.8326 12.152C46.9526 12.392 46.9286 12.62 46.7606 12.836C46.6166 13.052 46.4246 13.148 46.1846 13.124C45.9206 13.076 45.6326 13.028 45.3206 12.98C45.0326 12.908 44.7926 12.908 44.6006 12.98C44.5766 13.004 44.4086 13.136 44.0966 13.376C43.8086 13.616 43.5446 13.796 43.3046 13.916C42.8006 14.18 42.3566 14.528 41.9726 14.96C41.6126 15.368 41.2406 15.752 40.8566 16.112C40.7606 16.232 40.6526 16.352 40.5326 16.472C40.4366 16.568 40.3406 16.676 40.2446 16.796C40.1486 16.964 40.0286 17.108 39.8846 17.228C39.7406 17.324 39.5966 17.432 39.4526 17.552C39.3326 17.648 39.2126 17.768 39.0926 17.912C38.9966 18.032 38.9126 18.152 38.8406 18.272C38.6966 18.536 38.5286 18.776 38.3366 18.992C38.1686 19.184 37.9886 19.388 37.7966 19.604C37.6766 19.772 37.4966 19.88 37.2566 19.928C37.0406 19.976 36.8366 19.964 36.6446 19.892C36.5006 19.82 36.3446 19.784 36.1766 19.784C35.8406 19.712 35.6486 19.364 35.6006 18.74C35.5766 18.092 35.6366 17.3 35.7806 16.364C35.9246 15.404 36.0926 14.42 36.2846 13.412C36.5006 12.38 36.6926 11.444 36.8606 10.604C36.9086 10.34 36.9086 10.1 36.8606 9.884C36.8126 9.668 36.8606 9.476 37.0046 9.308C37.1486 9.14 37.3286 9.068 37.5446 9.092C37.9766 9.14 38.3486 9.26 38.6606 9.452C38.9726 9.644 39.1886 9.992 39.3086 10.496C39.4526 11 39.4646 11.768 39.3446 12.8C39.3206 12.968 39.3806 13.088 39.5246 13.16C39.6926 13.208 39.8246 13.16 39.9206 13.016C40.6646 12.08 41.3846 11.444 42.0806 11.108C42.7766 10.772 43.4246 10.556 44.0246 10.46C44.4326 10.364 44.8646 10.436 45.3206 10.676C45.6566 10.844 45.9566 11.06 46.2206 11.324C46.5086 11.564 46.7126 11.84 46.8326 12.152ZM61.1108 16.76C61.2308 17.336 61.0628 17.78 60.6068 18.092C60.5108 18.188 60.4148 18.284 60.3188 18.38C60.2468 18.452 60.1868 18.536 60.1388 18.632C60.0188 18.848 59.8628 19.028 59.6708 19.172C59.5028 19.292 59.3228 19.4 59.1308 19.496C58.2428 19.856 57.3428 20.108 56.4308 20.252C55.5428 20.42 54.6188 20.372 53.6588 20.108C53.4188 20.036 53.1068 19.868 52.7228 19.604C52.3388 19.34 52.0268 19.064 51.7868 18.776C51.7388 18.68 51.6548 18.56 51.5348 18.416C51.4388 18.248 51.3428 18.08 51.2468 17.912C51.1988 17.72 51.2348 17.54 51.3548 17.372C51.4748 17.204 51.6548 17.144 51.8948 17.192C52.2308 17.264 52.5308 17.36 52.7948 17.48C53.0588 17.6 53.3108 17.72 53.5508 17.84C53.8388 17.984 54.1268 18.056 54.4148 18.056C55.1348 18.08 55.8308 17.996 56.5028 17.804C57.1988 17.588 57.7148 17.24 58.0508 16.76C58.1948 16.568 58.2188 16.364 58.1228 16.148C58.0268 15.932 57.8828 15.8 57.6908 15.752C57.0908 15.632 56.4788 15.56 55.8548 15.536C55.2548 15.488 54.6068 15.296 53.9108 14.96C53.3588 14.648 53.0348 14.252 52.9388 13.772C52.9148 13.724 52.8908 13.664 52.8668 13.592C52.8428 13.496 52.8068 13.412 52.7588 13.34C52.6628 13.148 52.6028 12.932 52.5788 12.692C52.5548 12.452 52.5788 12.212 52.6508 11.972C52.7708 11.564 52.9388 11.192 53.1548 10.856C53.3948 10.52 53.6348 10.172 53.8748 9.812C54.1388 9.452 54.4628 9.2 54.8468 9.056C55.3268 8.864 55.8188 8.78 56.3228 8.804C56.8508 8.828 57.3188 8.84 57.7268 8.84C57.9908 8.84 58.2548 8.888 58.5188 8.984C58.8548 9.104 59.1908 9.224 59.5268 9.344C59.8628 9.464 60.1628 9.656 60.4268 9.92C60.5948 10.088 60.7028 10.352 60.7508 10.712C60.8228 11.072 60.7988 11.372 60.6788 11.612C60.5828 11.852 60.3428 11.9 59.9588 11.756C59.6948 11.636 59.4668 11.504 59.2748 11.36C59.1068 11.192 58.8668 11.084 58.5548 11.036C58.3148 11.012 57.9548 10.988 57.4748 10.964C57.0188 10.916 56.6828 10.916 56.4668 10.964C56.0588 11.036 55.6988 11.24 55.3868 11.576C55.3628 11.624 55.3388 11.78 55.3148 12.044C55.3148 12.284 55.3268 12.524 55.3508 12.764C55.3748 13.004 55.4108 13.136 55.4588 13.16C55.6748 13.28 56.0348 13.352 56.5388 13.376C57.0668 13.376 57.5228 13.352 57.9068 13.304C58.0028 13.304 58.0868 13.34 58.1588 13.412C58.1828 13.508 58.2668 13.556 58.4108 13.556C58.9628 13.628 59.3948 13.832 59.7068 14.168C60.0188 14.48 60.3188 14.804 60.6068 15.14C60.8708 15.452 61.0268 15.824 61.0748 16.256C61.0748 16.352 61.0748 16.436 61.0748 16.508C61.0988 16.58 61.1108 16.664 61.1108 16.76ZM76.1042 12.116C76.4402 12.62 76.4162 13.088 76.0322 13.52C76.0082 13.52 75.9842 13.532 75.9602 13.556C75.9602 13.556 75.9482 13.556 75.9242 13.556C75.7322 13.748 75.6002 13.964 75.5282 14.204C75.3362 14.588 75.0482 14.864 74.6642 15.032C74.2802 15.176 73.8602 15.272 73.4042 15.32C72.9482 15.368 72.5162 15.428 72.1082 15.5C71.8442 15.572 71.6042 15.656 71.3882 15.752C71.1722 15.824 70.9442 15.884 70.7042 15.932C70.1282 16.076 69.6482 15.956 69.2642 15.572C69.1682 15.476 69.0722 15.392 68.9762 15.32C68.8802 15.224 68.7842 15.128 68.6882 15.032C68.5442 14.912 68.3882 14.888 68.2202 14.96C68.0522 15.008 67.9682 15.128 67.9682 15.32C67.9202 15.776 68.0162 16.244 68.2562 16.724C68.5202 17.18 68.8082 17.504 69.1202 17.696C69.5762 17.912 70.1042 18.008 70.7042 17.984C71.3042 17.96 71.9162 17.876 72.5402 17.732C73.1642 17.588 73.7282 17.468 74.2322 17.372C74.4242 17.324 74.6282 17.336 74.8442 17.408C75.0842 17.48 75.2642 17.612 75.3842 17.804C75.4082 17.828 75.4322 17.864 75.4562 17.912C75.5042 17.96 75.5282 18.008 75.5282 18.056C75.6482 18.296 75.6602 18.536 75.5642 18.776C75.4922 19.016 75.3482 19.196 75.1322 19.316C75.1322 19.34 75.1202 19.352 75.0962 19.352C75.0722 19.352 75.0482 19.376 75.0242 19.424C74.9282 19.52 74.8082 19.604 74.6642 19.676C74.5202 19.724 74.3882 19.772 74.2682 19.82C73.8602 19.916 73.4642 19.988 73.0802 20.036C72.7202 20.108 72.3002 20.168 71.8202 20.216C71.6282 20.288 71.4362 20.288 71.2442 20.216C70.6442 20.12 70.0202 20.036 69.3722 19.964C68.7242 19.892 68.1242 19.736 67.5722 19.496C67.0442 19.232 66.6242 18.788 66.3122 18.164C66.2882 18.116 66.2522 18.068 66.2042 18.02C66.1802 17.972 66.1562 17.912 66.1322 17.84C65.7482 17.312 65.5442 16.652 65.5202 15.86C65.4962 15.044 65.6042 14.24 65.8442 13.448C66.0842 12.656 66.3842 12.032 66.7442 11.576C67.0082 11.264 67.3082 11.048 67.6442 10.928C67.9802 10.784 68.3402 10.592 68.7242 10.352C69.5162 9.896 70.3922 9.692 71.3522 9.74C72.3122 9.764 73.2242 9.992 74.0882 10.424C74.9522 10.832 75.6242 11.396 76.1042 12.116ZM73.7642 12.044C73.7402 11.972 73.6922 11.924 73.6202 11.9C73.5482 11.852 73.4762 11.816 73.4042 11.792C73.0442 11.792 72.6122 11.816 72.1082 11.864C71.6282 11.888 71.3522 11.924 71.2802 11.972C71.2322 12.02 71.1362 12.068 70.9922 12.116C70.6802 12.26 70.3562 12.38 70.0202 12.476C69.7082 12.548 69.4322 12.668 69.1922 12.836C69.0242 12.932 68.9642 13.076 69.0122 13.268C69.0842 13.46 69.2162 13.568 69.4082 13.592C70.0322 13.688 70.6802 13.676 71.3522 13.556C72.0242 13.412 72.6242 13.22 73.1522 12.98C73.3682 12.836 73.5722 12.668 73.7642 12.476C73.8842 12.308 73.8842 12.164 73.7642 12.044ZM94.1006 13.52C94.4606 14.84 94.6286 16.028 94.6046 17.084C94.6046 18.14 94.4726 18.956 94.2086 19.532C93.9686 20.108 93.6326 20.336 93.2006 20.216C93.0806 20.168 92.8766 20.132 92.5886 20.108C92.3006 20.108 92.0366 20.036 91.7966 19.892C91.5566 19.748 91.4126 19.472 91.3646 19.064C91.3406 18.776 91.3286 18.536 91.3286 18.344C91.3286 18.152 91.3286 17.888 91.3286 17.552C91.3286 17.216 91.3046 16.724 91.2566 16.076C91.2086 15.26 90.9446 14.576 90.4646 14.024C90.0086 13.472 89.3966 13.16 88.6286 13.088C87.8606 12.992 86.9846 13.268 86.0006 13.916C85.5206 14.252 85.0886 14.708 84.7046 15.284C84.3446 15.86 84.0326 16.448 83.7686 17.048C83.5046 17.624 83.2886 18.128 83.1206 18.56C82.9766 18.872 82.8086 19.16 82.6166 19.424C82.4246 19.688 82.1126 19.808 81.6806 19.784C81.4166 19.784 81.1046 19.82 80.7446 19.892C80.4086 19.94 80.2526 19.808 80.2766 19.496C80.3726 17.984 80.5406 16.46 80.7806 14.924C81.0206 13.364 81.2606 11.996 81.5006 10.82C81.5486 10.58 81.6566 10.4 81.8246 10.28C82.0166 10.16 82.2086 10.112 82.4006 10.136C82.9526 10.232 83.3726 10.4 83.6606 10.64C83.9486 10.88 84.0686 11.468 84.0206 12.404C83.9966 12.524 84.0446 12.62 84.1646 12.692C84.3086 12.74 84.4286 12.716 84.5246 12.62C85.1966 11.996 86.0486 11.48 87.0806 11.072C88.1366 10.664 89.3246 10.592 90.6446 10.856C91.3886 11.024 92.0246 11.276 92.5526 11.612C93.0806 11.924 93.5366 12.428 93.9206 13.124C94.0166 13.244 94.0766 13.376 94.1006 13.52ZM104.565 8.3C104.565 8.324 104.565 8.372 104.565 8.444C104.565 8.516 104.553 8.576 104.529 8.624C104.505 8.672 104.457 8.732 104.385 8.804C104.337 8.852 104.277 8.888 104.205 8.912C103.533 9.248 102.849 9.344 102.153 9.2C101.793 9.176 101.481 9.044 101.217 8.804C101.073 8.708 100.929 8.624 100.785 8.552C100.665 8.48 100.533 8.396 100.389 8.3C100.173 8.132 100.041 7.916 99.9928 7.652C99.9448 7.388 100.005 7.136 100.173 6.896C100.365 6.632 100.593 6.44 100.857 6.32C101.145 6.176 101.445 6.08 101.757 6.032C102.237 5.984 102.669 6.08 103.053 6.32C103.125 6.344 103.185 6.38 103.233 6.428C103.281 6.452 103.341 6.476 103.413 6.5C103.869 6.692 104.193 7.016 104.385 7.472C104.505 7.688 104.565 7.964 104.565 8.3ZM103.089 11.72C103.041 12.176 102.981 12.764 102.909 13.484C102.861 14.18 102.801 14.912 102.729 15.68C102.681 16.448 102.597 17.18 102.477 17.876C102.381 18.548 102.261 19.1 102.117 19.532C101.901 20.108 101.517 20.336 100.965 20.216C100.821 20.192 100.677 20.18 100.533 20.18C100.413 20.18 100.293 20.168 100.173 20.144C99.6208 19.976 99.3208 19.628 99.2728 19.1C99.2248 18.836 99.1768 18.584 99.1288 18.344C99.1048 18.08 99.1048 17.852 99.1288 17.66C99.1768 17.444 99.2488 17.036 99.3447 16.436C99.4648 15.836 99.5968 15.176 99.7408 14.456C99.8848 13.736 100.017 13.088 100.137 12.512C100.257 11.912 100.329 11.516 100.353 11.324V11.216C100.353 10.952 100.437 10.736 100.605 10.568C100.773 10.4 100.977 10.304 101.217 10.28C101.457 10.28 101.673 10.292 101.865 10.316C102.081 10.316 102.261 10.364 102.405 10.46C102.981 10.7 103.209 11.12 103.089 11.72ZM122.726 18.632C122.75 18.896 122.702 19.04 122.582 19.064C122.462 19.064 122.294 19.04 122.078 18.992C121.79 18.968 121.526 18.944 121.286 18.92C121.07 18.872 120.83 18.752 120.566 18.56C120.254 18.344 120.002 18.068 119.81 17.732C119.714 17.54 119.57 17.432 119.378 17.408C119.186 17.384 119.006 17.432 118.838 17.552C118.718 17.672 118.598 17.792 118.478 17.912C118.358 18.008 118.226 18.116 118.082 18.236C117.698 18.644 117.242 19.016 116.714 19.352C116.186 19.664 115.574 19.916 114.878 20.108C114.614 20.18 114.29 20.192 113.906 20.144C113.666 20.072 113.438 20 113.222 19.928C113.006 19.856 112.802 19.82 112.61 19.82C112.442 19.82 112.286 19.796 112.142 19.748C111.998 19.7 111.866 19.652 111.746 19.604C110.906 19.148 110.246 18.428 109.766 17.444C109.31 16.436 109.022 15.332 108.902 14.132C108.806 12.932 108.878 11.816 109.118 10.784C109.19 10.52 109.322 10.316 109.514 10.172C109.73 10.028 109.958 9.956 110.198 9.956C110.342 9.956 110.486 9.968 110.63 9.992C110.774 10.016 110.93 10.076 111.098 10.172C111.266 10.268 111.458 10.376 111.674 10.496C111.89 10.616 112.046 10.748 112.142 10.892C112.31 11.108 112.358 11.324 112.286 11.54C112.214 11.756 112.166 11.984 112.142 12.224C112.142 12.392 112.13 12.632 112.106 12.944C112.106 13.232 112.106 13.472 112.106 13.664C112.106 14.048 112.118 14.432 112.142 14.816C112.166 15.176 112.226 15.536 112.322 15.896C112.418 16.328 112.61 16.724 112.898 17.084C112.946 17.108 112.97 17.132 112.97 17.156C112.97 17.156 112.982 17.168 113.006 17.192C113.174 17.36 113.402 17.456 113.69 17.48C114.002 17.48 114.254 17.432 114.446 17.336C115.022 17.12 115.49 16.856 115.85 16.544C116.33 16.136 116.726 15.68 117.038 15.176C117.35 14.672 117.698 14.192 118.082 13.736C118.37 13.424 118.598 13.088 118.766 12.728C118.958 12.368 119.15 12.044 119.342 11.756C119.486 11.564 119.678 11.432 119.918 11.36C120.158 11.264 120.386 11.276 120.602 11.396C120.986 11.564 121.25 11.804 121.394 12.116C121.562 12.404 121.586 12.8 121.466 13.304C121.394 13.664 121.358 14.024 121.358 14.384C121.382 14.744 121.37 15.104 121.322 15.464C121.298 15.704 121.274 15.968 121.25 16.256C121.25 16.52 121.334 16.76 121.502 16.976C121.574 17.048 121.646 17.108 121.718 17.156C121.814 17.204 121.898 17.264 121.97 17.336C122.018 17.432 122.066 17.492 122.114 17.516C122.162 17.54 122.21 17.588 122.258 17.66C122.402 17.756 122.51 17.9 122.582 18.092C122.678 18.26 122.726 18.44 122.726 18.632ZM147.383 14.096C147.431 14.336 147.443 14.792 147.419 15.464C147.395 16.136 147.347 16.844 147.275 17.588C147.203 18.332 147.119 18.944 147.023 19.424C146.999 19.544 146.951 19.652 146.879 19.748C146.807 19.844 146.723 19.928 146.627 20C146.459 20.144 146.243 20.192 145.979 20.144C145.259 20.096 144.815 19.916 144.647 19.604V19.496C144.575 19.304 144.527 18.956 144.503 18.452C144.503 17.924 144.503 17.36 144.503 16.76C144.503 16.136 144.479 15.584 144.431 15.104C144.407 14.6 144.323 14.3 144.179 14.204C143.987 14.012 143.711 13.76 143.351 13.448C142.991 13.136 142.535 13.028 141.983 13.124C141.503 13.172 141.035 13.4 140.579 13.808C140.123 14.192 139.763 14.66 139.499 15.212C139.331 15.548 139.199 15.944 139.103 16.4C139.031 16.832 138.947 17.3 138.851 17.804C138.755 18.26 138.623 18.692 138.455 19.1C138.287 19.508 137.999 19.772 137.591 19.892C137.327 19.964 137.099 20.012 136.907 20.036C136.739 20.06 136.559 19.988 136.367 19.82C136.103 19.556 135.947 19.196 135.899 18.74C135.851 18.26 135.851 17.756 135.899 17.228C135.947 16.676 135.971 16.148 135.971 15.644C135.995 15.116 135.911 14.696 135.719 14.384C135.479 13.856 135.155 13.556 134.747 13.484C134.363 13.412 133.979 13.448 133.595 13.592C133.235 13.736 132.947 13.904 132.731 14.096C132.227 14.504 131.867 14.948 131.651 15.428C131.435 15.884 131.147 16.388 130.787 16.94C130.643 17.156 130.475 17.48 130.283 17.912C130.091 18.344 129.887 18.752 129.671 19.136C129.479 19.52 129.263 19.76 129.023 19.856C128.831 19.952 128.579 19.964 128.267 19.892C127.955 19.82 127.703 19.736 127.511 19.64C127.247 19.448 127.091 19.136 127.043 18.704C126.995 18.272 127.007 17.792 127.079 17.264C127.151 16.712 127.247 16.184 127.367 15.68C127.511 15.176 127.619 14.756 127.691 14.42C127.883 13.58 128.075 12.704 128.267 11.792C128.483 10.856 128.711 9.956 128.951 9.092C128.999 8.876 129.119 8.708 129.311 8.588C129.527 8.468 129.731 8.444 129.923 8.516C130.403 8.612 130.823 8.852 131.183 9.236C131.567 9.596 131.747 10.196 131.723 11.036C131.723 11.18 131.783 11.288 131.903 11.36C132.047 11.432 132.167 11.42 132.263 11.324C132.983 10.7 133.787 10.388 134.675 10.388C135.587 10.388 136.295 10.664 136.799 11.216C137.015 11.384 137.183 11.564 137.303 11.756C137.447 11.924 137.567 12.08 137.663 12.224C137.735 12.368 137.855 12.452 138.023 12.476C138.215 12.5 138.371 12.44 138.491 12.296C139.139 11.528 139.955 11.048 140.939 10.856C141.923 10.64 142.847 10.556 143.711 10.604C143.831 10.628 143.927 10.652 143.999 10.676C144.095 10.676 144.191 10.688 144.287 10.712C145.199 11.048 145.907 11.48 146.411 12.008C146.939 12.512 147.263 13.208 147.383 14.096ZM166.231 12.584C166.183 12.848 166.015 13.04 165.727 13.16C165.631 13.184 165.535 13.196 165.439 13.196C165.367 13.196 165.271 13.208 165.151 13.232C164.647 13.304 164.335 13.592 164.215 14.096C164.143 14.336 164.047 14.564 163.927 14.78C163.807 14.972 163.735 15.164 163.711 15.356C163.687 15.668 163.567 15.968 163.351 16.256C163.159 16.544 162.967 16.856 162.775 17.192C162.583 17.504 162.343 17.792 162.055 18.056C161.839 18.224 161.611 18.416 161.371 18.632C161.155 18.824 160.939 18.98 160.723 19.1C160.339 19.34 159.919 19.592 159.463 19.856C159.031 20.12 158.599 20.288 158.167 20.36C157.471 20.456 156.691 20.396 155.827 20.18C154.987 19.964 154.243 19.616 153.595 19.136C152.971 18.632 152.611 18.02 152.515 17.3C152.515 17.204 152.455 17.132 152.335 17.084C152.215 17.012 152.155 16.916 152.155 16.796C151.987 15.788 151.867 14.864 151.795 14.024C151.723 13.184 151.735 12.344 151.831 11.504C151.951 10.64 152.179 9.68 152.515 8.624C152.947 7.304 153.607 6.068 154.495 4.916C155.383 3.764 156.403 2.852 157.555 2.18C158.731 1.508 159.931 1.256 161.155 1.424C161.635 1.448 162.223 1.652 162.919 2.036C163.639 2.42 164.227 2.792 164.683 3.152C164.923 3.32 164.983 3.608 164.863 4.016C164.743 4.4 164.599 4.616 164.431 4.664C164.191 4.688 163.927 4.676 163.639 4.628C163.375 4.58 163.099 4.532 162.811 4.484C162.739 4.436 162.667 4.412 162.595 4.412C162.547 4.388 162.499 4.364 162.451 4.34H162.415C162.295 4.436 162.091 4.508 161.803 4.556C161.275 4.7 160.747 4.916 160.219 5.204C159.715 5.468 159.271 5.732 158.887 5.996C158.767 6.092 158.635 6.224 158.491 6.392C158.179 6.8 157.891 7.244 157.627 7.724C157.387 8.204 157.099 8.624 156.763 8.984C156.667 9.032 156.595 9.104 156.547 9.2C156.499 9.272 156.451 9.356 156.403 9.452C156.091 10.172 155.803 10.94 155.539 11.756C155.299 12.572 155.047 13.364 154.783 14.132C154.759 14.252 154.735 14.372 154.711 14.492C154.711 14.588 154.711 14.696 154.711 14.816C154.735 15.272 154.795 15.62 154.891 15.86C154.987 16.076 155.119 16.316 155.287 16.58C155.431 16.748 155.575 16.892 155.719 17.012C155.887 17.132 156.079 17.228 156.295 17.3C157.135 17.588 157.867 17.6 158.491 17.336C159.139 17.048 159.727 16.628 160.255 16.076C160.783 15.5 161.287 14.912 161.767 14.312C161.911 14.168 161.959 14 161.911 13.808C161.887 13.592 161.779 13.436 161.587 13.34C161.299 13.148 161.011 12.932 160.723 12.692C160.459 12.428 160.279 12.104 160.183 11.72C160.135 11.48 160.159 11.276 160.255 11.108C160.375 10.916 160.555 10.808 160.795 10.784C161.275 10.688 161.791 10.568 162.343 10.424C162.919 10.28 163.339 10.244 163.603 10.316C163.819 10.34 163.987 10.436 164.107 10.604C164.227 10.748 164.359 10.844 164.503 10.892C164.695 10.988 164.887 11.036 165.079 11.036C165.295 11.012 165.487 11.06 165.655 11.18C165.775 11.276 165.871 11.384 165.943 11.504C166.015 11.624 166.063 11.744 166.087 11.864C166.183 12.056 166.231 12.296 166.231 12.584ZM185.865 4.664C185.697 5.12 185.445 5.552 185.109 5.96C184.773 6.344 184.377 6.692 183.921 7.004C183.825 7.1 183.729 7.196 183.633 7.292C183.561 7.364 183.477 7.46 183.381 7.58C183.357 7.676 183.285 7.772 183.165 7.868C183.045 7.94 182.937 8.012 182.841 8.084C182.697 8.156 182.553 8.276 182.409 8.444C182.025 8.852 181.701 9.248 181.437 9.632C181.197 9.992 180.921 10.388 180.609 10.82C180.273 11.228 180.213 11.696 180.429 12.224C180.885 13.208 181.401 14.192 181.977 15.176C182.577 16.16 183.105 17.12 183.561 18.056C183.849 18.536 183.861 19.028 183.597 19.532C183.573 19.628 183.525 19.736 183.453 19.856C183.405 19.952 183.357 20.06 183.309 20.18C183.261 20.252 183.201 20.312 183.129 20.36C183.057 20.408 182.997 20.456 182.949 20.504C182.805 20.552 182.649 20.552 182.481 20.504C182.385 20.456 182.289 20.42 182.193 20.396C182.097 20.372 182.001 20.348 181.905 20.324C181.401 20.18 181.029 19.856 180.789 19.352C180.405 18.608 179.997 17.852 179.565 17.084C179.133 16.316 178.725 15.572 178.341 14.852C178.245 14.66 178.089 14.54 177.873 14.492C177.681 14.444 177.489 14.48 177.297 14.6C177.297 14.624 177.273 14.636 177.225 14.636C177.105 14.756 177.045 14.864 177.045 14.96C177.021 14.984 176.997 15.032 176.973 15.104C176.949 15.176 176.913 15.236 176.865 15.284C176.217 15.908 175.581 16.664 174.957 17.552C174.333 18.44 173.649 19.22 172.905 19.892C172.545 20.204 172.173 20.312 171.789 20.216C171.381 20.144 171.093 19.904 170.925 19.496C170.853 19.328 170.793 19.16 170.745 18.992C170.721 18.8 170.685 18.62 170.637 18.452C170.613 17.924 170.757 17.444 171.069 17.012C171.429 16.604 171.777 16.148 172.113 15.644C172.449 15.14 172.821 14.66 173.229 14.204C173.445 13.94 173.697 13.688 173.985 13.448C174.297 13.184 174.537 12.932 174.705 12.692C174.753 12.644 174.777 12.572 174.777 12.476C174.777 12.356 174.801 12.272 174.849 12.224C175.065 11.912 175.365 11.612 175.749 11.324C176.133 11.036 176.313 10.712 176.289 10.352C176.289 10.208 176.157 9.98 175.893 9.668C175.653 9.356 175.497 9.128 175.425 8.984C175.305 8.552 175.065 8.048 174.705 7.472C174.345 6.872 173.985 6.272 173.625 5.672C173.289 5.048 173.049 4.484 172.905 3.98C172.785 3.62 172.785 3.14 172.905 2.54C172.953 2.252 173.097 2.036 173.337 1.892C173.577 1.748 173.817 1.736 174.057 1.856C174.561 2.048 175.113 2.624 175.713 3.584C176.313 4.544 177.045 5.756 177.909 7.22C178.029 7.388 178.173 7.484 178.341 7.508C178.533 7.532 178.701 7.46 178.845 7.292C179.613 6.452 180.357 5.588 181.077 4.7C181.797 3.788 182.565 2.96 183.381 2.216C183.573 2.048 183.789 1.964 184.029 1.964C184.293 1.94 184.509 2.012 184.677 2.18C184.749 2.204 184.785 2.228 184.785 2.252C185.049 2.444 185.277 2.672 185.469 2.936C185.493 3.056 185.553 3.164 185.649 3.26C185.937 3.716 186.009 4.184 185.865 4.664Z" fill="white"/>
</svg>
